<svg xmlns="http://www.w3.org/2000/svg" viewBox="0 0 64.9 64.91"><defs><style>.cls-1{fill:#e7e7e7;}</style></defs><title>Icons-Asset 6(T1)</title><g id="Layer_2" data-name="Layer 2"><g id="Advertising"><path class="cls-1" d="M63,55c2.45,2.45,2.46,5,0,7.48l-.84.84a4.64,4.64,0,0,1-7,0L32.44,40.55,9.88,63.11a5.29,5.29,0,0,1-3.7,1.8h0a5.22,5.22,0,0,1-3.68-1.8l-.33-.32c-.28-.28-.57-.56-.84-.86a4.56,4.56,0,0,1-.08-6.33c.16-.18.33-.35.5-.51L24.36,32.47,1.63,9.73a4.63,4.63,0,0,1,0-7C2,2.33,2.35,2,2.73,1.58a4.6,4.6,0,0,1,7,0L32.45,24.39,51,5.87l4-4.05c2.42-2.42,5-2.43,7.37,0l.32.31c.27.26.53.53.79.8a4.56,4.56,0,0,1,.07,6.52c-.14.15-.3.3-.45.45L63,10,40.53,32.46Z"/></g></g></svg>