<svg xmlns="http://www.w3.org/2000/svg" viewBox="0 0 40 40.01">
    <defs>
        <style>
            .cls-1{fill:#e3e3e3;}
        </style>
    </defs>
    <title>
        Icons-Asset 1(T1)
    </title>
    <g id="Layer_2" data-name="Layer 2">
        <g id="Menu">
            <path d="M0,20c0-1.78,0-3.56,0-5.34C0,13.44.09,12.22.16,11a13.51,13.51,0,0,1,1-4.48A10.16,10.16,0,0,1,3.77,3,10.44,10.44,0,0,1,8.09.65a13.61,13.61,0,0,1,2.3-.43C12.08.05,13.77,0,15.46,0c2.93,0,5.87,0,8.8,0,1.37,0,2.74.06,4.11.11a15.08,15.08,0,0,1,4.07.68A10.24,10.24,0,0,1,39.2,7.55a14.21,14.21,0,0,1,.59,2.86c.15,1.43.19,2.87.2,4.3q0,4.81,0,9.63c0,1.34-.06,2.69-.11,4a15.21,15.21,0,0,1-.66,4,10.34,10.34,0,0,1-3.16,4.82A10.55,10.55,0,0,1,32,39.34a14.47,14.47,0,0,1-2.82.49c-1.6.12-3.2.16-4.8.17-2.7,0-5.39,0-8.09,0-1.56,0-3.12-.06-4.67-.12A15.14,15.14,0,0,1,8,39.32,10.18,10.18,0,0,1,1.38,33.9a11.84,11.84,0,0,1-1-3.28,24.81,24.81,0,0,1-.28-3.25C0,24.91,0,22.46,0,20ZM20,36.39h3.93c1.67,0,3.34,0,5-.17a9.86,9.86,0,0,0,2.74-.59A6.56,6.56,0,0,0,35.54,32a10,10,0,0,0,.72-3.44c.06-1.26.12-2.51.12-3.77,0-3,0-6,0-9.07,0-1.54,0-3.08-.16-4.62a10,10,0,0,0-.61-2.81A6.48,6.48,0,0,0,32,4.5a9.63,9.63,0,0,0-3.27-.74c-1-.06-1.95-.1-2.92-.12-1.15,0-2.3,0-3.45,0-3.34,0-6.69,0-10,.09A15.73,15.73,0,0,0,9.45,4a7.5,7.5,0,0,0-2.36.93A6.61,6.61,0,0,0,4.28,8.52a11.08,11.08,0,0,0-.54,3c-.06,1.17-.11,2.34-.12,3.51,0,3.13,0,6.26,0,9.39,0,1.52,0,3,.16,4.56a10,10,0,0,0,.61,2.81A6.48,6.48,0,0,0,8,35.5a10.13,10.13,0,0,0,3.57.76c1.08.06,2.15.1,3.23.12C16.51,36.4,18.26,36.39,20,36.39Z" class="cls-1"/>
            <path d="M30.27,20A10.27,10.27,0,1,1,20,9.73,10.27,10.27,0,0,1,30.27,20ZM13.33,20A6.67,6.67,0,1,0,20,13.33,6.67,6.67,0,0,0,13.33,20Z" class="cls-1"/>
            <path d="M30.69,6.92a2.4,2.4,0,1,1-2.41,2.39A2.39,2.39,0,0,1,30.69,6.92Z" class="cls-1"/>
        </g>
    </g>
</svg>
