<svg xmlns="http://www.w3.org/2000/svg" viewBox="0 0 71.38 40">
    <defs>
        <style>
            .cls-1{fill:#e3e3e3;}
        </style>
    </defs>
    <title>
        Icons-Asset 5(T1)
    </title>
    <g id="Layer_2" data-name="Layer 2">
        <g id="Menu">
            <path d="M26.62,40V39c0-10.06,0-20.11,0-30.17,0-1.36.86-2.1,1.58-2.93a17,17,0,0,1,6.39-4.53A17.84,17.84,0,0,1,57.19,9.62a3.17,3.17,0,0,0,2.25,1.73c6,1.69,9.92,5.54,11.43,11.6a15.33,15.33,0,0,1-3.64,14.38c-1.06,1.22-2.22,2.4-4,2.59a11.22,11.22,0,0,1-1.2.07H26.62Z" class="cls-1"/>
            <path d="M24.06,24.58a79.21,79.21,0,0,1-1.19,13.7,6.08,6.08,0,0,1-.33,1.22.71.71,0,0,1-.51.35.59.59,0,0,1-.45-.35,13.67,13.67,0,0,1-.43-1.78,82.32,82.32,0,0,1-.9-19c.21-3.21.7-6.4,1.07-9.6a1.14,1.14,0,0,1,.11-.48c.19-.29.42-.55.64-.82.22.27.54.51.63.81a22.61,22.61,0,0,1,.52,2.63A89,89,0,0,1,24.06,24.58Z" class="cls-1"/>
            <path d="M18.75,23.53A77.55,77.55,0,0,1,17.67,39a2,2,0,0,1-.2.6c-.25.45-.68.45-.91,0a3.13,3.13,0,0,1-.23-.81,72.35,72.35,0,0,1-1.06-13.64,68.93,68.93,0,0,1,1.05-12.44c.09-.48.05-1.22.71-1.21s.59.73.68,1.23A61.36,61.36,0,0,1,18.75,23.53Z" class="cls-1"/>
            <path d="M11.05,28.6a57.24,57.24,0,0,1,.89-10.4s0-.1,0-.14l.52-.72c.17.23.42.44.48.69.17.76.28,1.53.38,2.3a63,63,0,0,1,.34,13.4c-.14,1.83-.44,3.64-.71,5.46,0,.28-.33.52-.5.77-.17-.25-.45-.48-.5-.75A56.2,56.2,0,0,1,11.05,28.6Z" class="cls-1"/>
            <path d="M9.4,27.89A48.5,48.5,0,0,1,8.66,38a4.16,4.16,0,0,1-.5,1,4.07,4.07,0,0,1-.49-1,54.88,54.88,0,0,1-.53-14.62c.11-1.38.35-2.75.58-4.12,0-.23.29-.43.44-.64.15.21.4.41.43.64.36,2.86.68,5.73,1,8.6Z" class="cls-1"/>
            <path d="M4.45,21.51c.13.65.3,1.29.38,1.94a40.81,40.81,0,0,1-.24,12,2.26,2.26,0,0,1-.33.61,2,2,0,0,1-.35-.61,41.63,41.63,0,0,1,0-13.22,3.63,3.63,0,0,1,.25-.68Z" class="cls-1"/>
            <path d="M.49,33.74a17.79,17.79,0,0,1,0-8.32A18.67,18.67,0,0,1,.49,33.74Z" class="cls-1"/>
        </g>
    </g>
</svg>
