<svg xmlns="http://www.w3.org/2000/svg" viewBox="0 0 46.33 40"><defs><style>.cls-1{fill:#e3e3e3;}</style></defs><title>Icons-Asset 2(T1)</title><g id="Layer_2" data-name="Layer 2"><g id="Menu"><path class="cls-1" d="M39.71,0l.34,0a7.38,7.38,0,0,1,2.79.71,5.64,5.64,0,0,1,2.74,3,9.84,9.84,0,0,1,.62,2.36,17.76,17.76,0,0,1,.1,3.32,13,13,0,0,1-.58,3.14,26.14,26.14,0,0,1-1.66,4.15A51.05,51.05,0,0,1,40.33,23a92.22,92.22,0,0,1-6.55,8.5,42.51,42.51,0,0,1-4.7,4.68,21.19,21.19,0,0,1-3.68,2.54,11.14,11.14,0,0,1-3,1.12,7.17,7.17,0,0,1-1.71.15,4.4,4.4,0,0,1-2.24-.74,7.34,7.34,0,0,1-1.78-1.69,14.63,14.63,0,0,1-1.74-2.93c-.3-.65-.58-1.32-.84-2-.17-.44-.27-.91-.39-1.37Q12,25,10.28,18.8a30.14,30.14,0,0,0-1.42-4.16A10.06,10.06,0,0,0,7.6,12.43a3.61,3.61,0,0,0-.76-.74A1.84,1.84,0,0,0,6,11.34a.7.7,0,0,0-.38,0c-.21.1-.42.19-.62.3-.87.49-1.69,1.06-2.51,1.63l-.28.19L0,10.71l.19-.17C2.35,8.61,4.5,6.68,6.66,4.77a28,28,0,0,1,4.26-3.19c.33-.19.67-.36,1-.53A5.15,5.15,0,0,1,14.6.5a4.74,4.74,0,0,1,3.13,1.36,6.08,6.08,0,0,1,.86,1.07,9.88,9.88,0,0,1,1.07,2.39,19.23,19.23,0,0,1,.62,2.77c.17,1.07.34,2.15.52,3.22s.4,2.37.6,3.56a58.37,58.37,0,0,0,1.43,6.44,16.42,16.42,0,0,0,.89,2.42,5.11,5.11,0,0,0,.66,1.11,3.26,3.26,0,0,0,.51.5,1.05,1.05,0,0,0,1.11.13,3,3,0,0,0,.75-.47A9,9,0,0,0,28,23.67a31.92,31.92,0,0,0,2.35-3.42,28.24,28.24,0,0,0,1.87-3.51,10,10,0,0,0,.69-2.1,6,6,0,0,0,0-2.45,2.48,2.48,0,0,0-2.15-2,7.1,7.1,0,0,0-2.68.13,9.27,9.27,0,0,0-1.44.44l-.18.06c0-.06,0-.1,0-.14a20.77,20.77,0,0,1,2.33-5.13A12.41,12.41,0,0,1,32.25,2,10.92,10.92,0,0,1,36.51.23a11.55,11.55,0,0,1,1.7-.2l.15,0Z"/></g></g></svg>